<svg xmlns="http://www.w3.org/2000/svg" width="128mm" height="128mm" viewBox="0 0 5500 5500" >
 <defs>
  <style>
   <![CDATA[
    .str0 {stroke:#2B2A29;stroke-width:7.62;stroke-miterlimit:22.9256}
    .str1 {stroke:#2B2A29;stroke-width:310;stroke-miterlimit:22.9256}
    .str2 {stroke:#2B2A29;stroke-width:7.62;stroke-miterlimit:22.9256}
    .fil0 {fill:#B046C2}
    .fil1 {fill:#FEFEFE}
    .fil2 {fill:#2B2A29}
    .fil3 {fill:none}
    .fil4 {fill:#2B2A29;fill-rule:nonzero}
    .fil5 {fill:none;fill-rule:nonzero}
   ]]>
  </style>
 </defs>
 <g>
  <circle class="fil0" cx="2771.74" cy="2700" r="2349.26"/>
  <path class="fil1" d="M4850.02 1649.43c158.36,316.15 247.6,672.91 247.6,1050.57 0,275.95 -47.73,540.73 -135.12,786.69l-4428.27 0c-87.39,-245.96 -135.13,-510.74 -135.13,-786.69 0,-377.66 89.25,-734.42 247.6,-1050.57l4203.32 0z"/>
  <polygon class="fil2 str0" points="672.18,1344.07 4817.99,1344.07 4817.99,1649.43 672.18,1649.43 "/>
  <polygon class="fil2" points="533.47,3422.45 5026.75,3422.45 5026.75,3727.8 533.47,3727.8 "/>
  <circle class="fil3 str1" cx="2750" cy="2700" r="2390.19"/>
  <path class="fil4" d="M849.78 2961.31l0 -667.45 111.24 0 243.05 556.21 2.8 0c-1.87,-18.07 -3.27,-35.37 -4.21,-51.88 -0.93,-16.52 -1.71,-32.72 -2.33,-48.61 -0.63,-15.89 -1.09,-32.25 -1.41,-49.08 -0.31,-16.83 -0.46,-34.59 -0.46,-53.28l0 -353.36 81.32 0 0 667.45 -101.89 0 -255.2 -581.45 -3.74 0c1.25,17.45 2.65,34.9 4.21,52.35 1.56,17.45 2.96,34.9 4.2,52.35 1.25,17.45 2.19,34.9 2.81,52.35 0.62,17.45 0.93,34.9 0.93,52.35l0 372.05 -81.32 0z"/>
  <path id="1" class="fil4" d="M1589.2 2970.66c-59.2,0 -102.98,-14.8 -131.34,-44.41 -28.35,-29.6 -42.53,-73.69 -42.53,-132.27l0 -333.72 84.13 0 0 320.63c0,39.89 8.26,70.11 24.77,90.68 16.52,20.56 45.03,30.85 85.54,30.85 34.9,0 62.32,-7.33 82.26,-21.97 19.94,-14.65 34.12,-35.68 42.53,-63.1 8.42,-27.42 12.62,-60.45 12.62,-99.09l0 -258 84.14 0 0 501.05 -67.31 0 -12.15 -67.31 -4.68 0c-11.84,18.7 -25.55,33.66 -41.13,44.87 -15.58,11.22 -33.03,19.32 -52.35,24.31 -19.32,4.99 -40.82,7.48 -64.5,7.48z"/>
  <path id="2" class="fil4" d="M2004.25 2961.31l0 -710.45 84.14 0 0 342.14c0,13.09 -0.32,27.73 -0.94,43.93 -0.62,16.21 -1.4,32.72 -2.34,49.55 -0.93,16.83 -2.02,32.72 -3.27,47.67l1.87 0c11.84,-15.58 23.22,-29.75 34.12,-42.53 10.91,-12.78 22.28,-26.02 34.12,-39.73l172.94 -191.63 100.96 0 -199.11 215.94 212.2 285.11 -97.22 0 -171.07 -235.57 -82.26 79.46 0 156.11 -84.14 0z"/>
  <polygon id="3" class="fil4" points="2541.76,2961.31 2541.76,2905.22 2724.98,2891.2 2724.98,2320.97 2547.37,2308.82 2547.37,2250.86 2809.12,2250.86 2809.12,2891.2 2971.77,2905.22 2971.77,2961.31 "/>
  <path id="4" class="fil4" d="M3342.89 2970.66c-53.6,0 -99.71,-9.97 -138.35,-29.92 -38.64,-19.94 -68.4,-49.07 -89.28,-87.4 -20.87,-38.33 -31.31,-85.22 -31.31,-140.69 0,-54.84 9.97,-101.73 29.91,-140.68 19.94,-38.95 47.68,-68.87 83.2,-89.75 35.52,-20.87 76.96,-31.31 124.33,-31.31 43.62,0 81.17,9.66 112.64,28.98 31.47,19.32 55.78,46.58 72.92,81.79 17.13,35.21 25.7,77.44 25.7,126.67l0 38.33 -363.64 0c1.25,43.62 9.51,78.21 24.78,103.76 15.27,25.55 36.14,43.78 62.63,54.68 26.48,10.91 57.18,16.36 92.08,16.36 27.42,0 54.53,-3.74 81.32,-11.21 26.8,-7.48 53.6,-17.45 80.4,-29.92l0 74.79c-28.67,12.46 -57.34,21.5 -86,27.1 -28.67,5.61 -55.78,8.42 -81.33,8.42zm105.63 -311.29c-1.25,-29.29 -6.86,-54.37 -16.83,-75.25 -9.97,-20.88 -24.15,-36.93 -42.53,-48.14 -18.38,-11.22 -40.98,-16.83 -67.77,-16.83 -41.76,0 -75.57,12.62 -101.43,37.86 -25.86,25.24 -42.22,59.36 -49.08,102.36l277.64 0z"/>
  <path id="5" class="fil4" d="M3818.7 2970.66c-49.23,0 -88.96,-12.15 -119.19,-36.46 -30.22,-24.3 -45.33,-61.07 -45.33,-110.31 0,-36.14 8.72,-66.21 26.17,-90.2 17.45,-24 43.16,-42.07 77.12,-54.22 33.97,-12.15 75.25,-18.85 123.86,-20.1l107.5 -2.8 0 -20.57c0,-44.87 -11.21,-75.56 -33.65,-92.08 -22.43,-16.51 -52.66,-24.77 -90.67,-24.77 -26.8,0 -52.35,3.43 -76.66,10.28 -24.3,6.86 -47.36,16.52 -69.17,28.98l-28.98 -63.57c23.68,-11.84 50.01,-22.12 78.99,-30.84 28.98,-8.73 62.47,-13.09 100.49,-13.09 62.94,0 111.4,14.18 145.36,42.53 33.97,28.36 50.95,72.45 50.95,132.28l0 335.59 -67.31 0 -9.35 -69.18 -3.73 0c-13.72,17.45 -28.83,31.94 -45.34,43.47 -16.52,11.53 -34.75,20.26 -54.69,26.18 -19.94,5.92 -42.06,8.88 -66.37,8.88zm14.02 -68.24c28.05,0 53.91,-5.14 77.59,-15.43 23.68,-10.28 42.69,-25.86 57.02,-46.74 14.34,-20.87 21.5,-47.2 21.5,-78.99l0 -44.87 -89.74 2.81c-39.88,1.24 -71.98,6.07 -96.28,14.49 -24.31,8.41 -41.91,19.94 -52.82,34.58 -10.9,14.65 -16.36,32.25 -16.36,52.82 0,28.67 9.04,49.39 27.11,62.16 18.08,12.78 42.07,19.17 71.98,19.17z"/>
  <path id="6" class="fil4" d="M4207.58 2961.31l0 -56.09 152.37 -14.02 0 -360.83 -137.42 -12.16 0 -57.95 204.73 0 11.21 91.61 3.74 0c17.45,-33.03 36.62,-58.12 57.49,-75.25 20.88,-17.14 48.46,-25.71 82.73,-25.71 21.19,0 40.04,1.87 56.56,5.61 16.51,3.74 31.63,8.72 45.34,14.95l-22.44 73.85c-9.97,-5.6 -21.81,-10.43 -35.52,-14.49 -13.71,-4.05 -28.36,-6.07 -43.94,-6.07 -26.8,0 -50.48,8.41 -71.04,25.24 -20.57,16.82 -36.77,39.26 -48.61,67.3 -11.84,28.05 -17.76,58.9 -17.76,92.55l0 181.35 145.83 14.02 0 56.09 -383.27 0z"/>
  <path id="7" class="fil5 str2" d="M849.78 2961.31l0 -667.45 111.24 0 243.05 556.21 2.8 0c-1.87,-18.07 -3.27,-35.37 -4.21,-51.88 -0.93,-16.52 -1.71,-32.72 -2.33,-48.61 -0.63,-15.89 -1.09,-32.25 -1.41,-49.08 -0.31,-16.83 -0.46,-34.59 -0.46,-53.28l0 -353.36 81.32 0 0 667.45 -101.89 0 -255.2 -581.45 -3.74 0c1.25,17.45 2.65,34.9 4.21,52.35 1.56,17.45 2.96,34.9 4.2,52.35 1.25,17.45 2.19,34.9 2.81,52.35 0.62,17.45 0.93,34.9 0.93,52.35l0 372.05 -81.32 0z"/>
  <path id="8" class="fil5 str2" d="M1589.2 2970.66c-59.2,0 -102.98,-14.8 -131.34,-44.41 -28.35,-29.6 -42.53,-73.69 -42.53,-132.27l0 -333.72 84.13 0 0 320.63c0,39.89 8.26,70.11 24.77,90.68 16.52,20.56 45.03,30.85 85.54,30.85 34.9,0 62.32,-7.33 82.26,-21.97 19.94,-14.65 34.12,-35.68 42.53,-63.1 8.42,-27.42 12.62,-60.45 12.62,-99.09l0 -258 84.14 0 0 501.05 -67.31 0 -12.15 -67.31 -4.68 0c-11.84,18.7 -25.55,33.66 -41.13,44.87 -15.58,11.22 -33.03,19.32 -52.35,24.31 -19.32,4.99 -40.82,7.48 -64.5,7.48z"/>
  <path id="9" class="fil5 str2" d="M2004.25 2961.31l0 -710.45 84.14 0 0 342.14c0,13.09 -0.32,27.73 -0.94,43.93 -0.62,16.21 -1.4,32.72 -2.34,49.55 -0.93,16.83 -2.02,32.72 -3.27,47.67l1.87 0c11.84,-15.58 23.22,-29.75 34.12,-42.53 10.91,-12.78 22.28,-26.02 34.12,-39.73l172.94 -191.63 100.96 0 -199.11 215.94 212.2 285.11 -97.22 0 -171.07 -235.57 -82.26 79.46 0 156.11 -84.14 0z"/>
  <polygon id="10" class="fil5 str2" points="2541.76,2961.31 2541.76,2905.22 2724.98,2891.2 2724.98,2320.97 2547.37,2308.82 2547.37,2250.86 2809.12,2250.86 2809.12,2891.2 2971.77,2905.22 2971.77,2961.31 "/>
  <path id="11" class="fil5 str2" d="M3342.89 2970.66c-53.6,0 -99.71,-9.97 -138.35,-29.92 -38.64,-19.94 -68.4,-49.07 -89.28,-87.4 -20.87,-38.33 -31.31,-85.22 -31.31,-140.69 0,-54.84 9.97,-101.73 29.91,-140.68 19.94,-38.95 47.68,-68.87 83.2,-89.75 35.52,-20.87 76.96,-31.31 124.33,-31.31 43.62,0 81.17,9.66 112.64,28.98 31.47,19.32 55.78,46.58 72.92,81.79 17.13,35.21 25.7,77.44 25.7,126.67l0 38.33 -363.64 0c1.25,43.62 9.51,78.21 24.78,103.76 15.27,25.55 36.14,43.78 62.63,54.68 26.48,10.91 57.18,16.36 92.08,16.36 27.42,0 54.53,-3.74 81.32,-11.21 26.8,-7.48 53.6,-17.45 80.4,-29.92l0 74.79c-28.67,12.46 -57.34,21.5 -86,27.1 -28.67,5.61 -55.78,8.42 -81.33,8.42zm105.63 -311.29c-1.25,-29.29 -6.86,-54.37 -16.83,-75.25 -9.97,-20.88 -24.15,-36.93 -42.53,-48.14 -18.38,-11.22 -40.98,-16.83 -67.77,-16.83 -41.76,0 -75.57,12.62 -101.43,37.86 -25.86,25.24 -42.22,59.36 -49.08,102.36l277.64 0z"/>
  <path id="12" class="fil5 str2" d="M3818.7 2970.66c-49.23,0 -88.96,-12.15 -119.19,-36.46 -30.22,-24.3 -45.33,-61.07 -45.33,-110.31 0,-36.14 8.72,-66.21 26.17,-90.2 17.45,-24 43.16,-42.07 77.12,-54.22 33.97,-12.15 75.25,-18.85 123.86,-20.1l107.5 -2.8 0 -20.57c0,-44.87 -11.21,-75.56 -33.65,-92.08 -22.43,-16.51 -52.66,-24.77 -90.67,-24.77 -26.8,0 -52.35,3.43 -76.66,10.28 -24.3,6.86 -47.36,16.52 -69.17,28.98l-28.98 -63.57c23.68,-11.84 50.01,-22.12 78.99,-30.84 28.98,-8.73 62.47,-13.09 100.49,-13.09 62.94,0 111.4,14.18 145.36,42.53 33.97,28.36 50.95,72.45 50.95,132.28l0 335.59 -67.31 0 -9.35 -69.18 -3.73 0c-13.72,17.45 -28.83,31.94 -45.34,43.47 -16.52,11.53 -34.75,20.26 -54.69,26.18 -19.94,5.92 -42.06,8.88 -66.37,8.88zm14.02 -68.24c28.05,0 53.91,-5.14 77.59,-15.43 23.68,-10.28 42.69,-25.86 57.02,-46.74 14.34,-20.87 21.5,-47.2 21.5,-78.99l0 -44.87 -89.74 2.81c-39.88,1.24 -71.98,6.07 -96.28,14.49 -24.31,8.41 -41.91,19.94 -52.82,34.58 -10.9,14.65 -16.36,32.25 -16.36,52.82 0,28.67 9.04,49.39 27.11,62.16 18.08,12.78 42.07,19.17 71.98,19.17z"/>
  <path id="13" class="fil5 str2" d="M4207.58 2961.31l0 -56.09 152.37 -14.02 0 -360.83 -137.42 -12.16 0 -57.95 204.73 0 11.21 91.61 3.74 0c17.45,-33.03 36.62,-58.12 57.49,-75.25 20.88,-17.14 48.46,-25.71 82.73,-25.71 21.19,0 40.04,1.87 56.56,5.61 16.51,3.74 31.63,8.72 45.34,14.95l-22.44 73.85c-9.97,-5.6 -21.81,-10.43 -35.52,-14.49 -13.71,-4.05 -28.36,-6.07 -43.94,-6.07 -26.8,0 -50.48,8.41 -71.04,25.24 -20.57,16.82 -36.77,39.26 -48.61,67.3 -11.84,28.05 -17.76,58.9 -17.76,92.55l0 181.35 145.83 14.02 0 56.09 -383.27 0z"/>
 </g>
</svg>
